<svg id="Layer_1" data-name="Layer 1" xmlns="http://www.w3.org/2000/svg" viewBox="0 0 512 512"><defs><style>.cls-1{fill:#eff2f4;}.cls-2{fill:#ffa840;}.cls-3{opacity:0.14;}.cls-4{fill:#17292d;}.cls-5{fill:#141f38;}</style></defs><title>bank-filled</title><path class="cls-1" d="M64,409.6V448a51.2,51.2,0,0,0-51.2,51.2H499.18A51.2,51.2,0,0,0,448,448V409.6h-12.8V204.81H448v-38.4h32c20.05,0,26.69-27.93,8.95-37.64L295.54,23a82,82,0,0,0-79.07,0L23.11,128.77C5.37,138.48,12,166.41,32.06,166.41H64v38.4h12.8V409.6ZM345.59,166.41v38.4h12.8V409.6h-12.8V448H307.2V409.6H294.4V204.81h12.8v-38.4Zm-192,38.4h12.8v-38.4h38.4v38.4h12.8V409.6H204.8V448h-38.4V409.6h-12.8Z"/><circle class="cls-2" cx="256" cy="89.61" r="25.6"/><g class="cls-3"><rect class="cls-4" x="115.21" y="217.61" width="25.6" height="179.2"/></g><g class="cls-3"><rect class="cls-4" x="256" y="217.61" width="25.6" height="179.2"/></g><g class="cls-3"><rect class="cls-4" x="396.79" y="217.61" width="25.6" height="179.2"/></g><path class="cls-5" d="M460.78,436.49V409.6A12.8,12.8,0,0,0,448,396.8V217.61a12.8,12.8,0,0,0,12.8-12.8v-25.6h19.15c14.78,0,27.22-9.82,31-24.45,3.83-15-2.54-29.93-15.87-37.22L301.68,11.74a94.76,94.76,0,0,0-91.36,0L17,117.53C3.65,124.83-2.73,139.78,1.1,154.76c3.74,14.62,16.18,24.45,31,24.45H51.22v25.6A12.8,12.8,0,0,0,64,217.61V396.8a12.8,12.8,0,0,0-12.8,12.8v26.89A64.11,64.11,0,0,0,0,499.2V512H512V499.2A64.11,64.11,0,0,0,460.78,436.49Zm-384-14.09h76.79v12.8H76.82Zm89.59-25.6V217.61a12.8,12.8,0,0,0,12.8-12.8v-25.6H192v25.6a12.8,12.8,0,0,0,12.8,12.8V396.8A12.8,12.8,0,0,0,192,409.6v25.6h-12.8V409.6A12.8,12.8,0,0,0,166.41,396.8Zm64,0V217.61h51.2V396.8ZM294.4,192H217.6v-12.8H294.4ZM217.6,422.4H294.4v12.8H217.6Zm89.59-25.6V217.61a12.8,12.8,0,0,0,12.8-12.8v-25.6h12.8v25.6a12.8,12.8,0,0,0,12.8,12.8V396.8a12.8,12.8,0,0,0-12.8,12.8v25.6H320V409.6A12.8,12.8,0,0,0,307.2,396.8Zm51.2,25.6h76.79v12.8H358.39Zm64-25.6h-51.2V217.61h51.2ZM435.19,192H358.39v-12.8h76.79ZM32.06,153.61c-4.2,0-5.66-3.25-6.16-5.19-.35-1.36-1.13-6,3.36-8.42L222.61,34.2a69.22,69.22,0,0,1,66.79,0L482.74,140c4.49,2.45,3.71,7.06,3.36,8.42-.49,1.94-2,5.19-6.16,5.19H32.06Zm121.55,25.6V192H76.82v-12.8Zm-64,38.4h51.2V396.8H89.61ZM27.81,486.4A38.46,38.46,0,0,1,64,460.8H448a38.46,38.46,0,0,1,36.2,25.6ZM256,128a38.4,38.4,0,1,0-38.4-38.4A38.44,38.44,0,0,0,256,128Zm0-51.2a12.8,12.8,0,1,1-12.8,12.8A12.81,12.81,0,0,1,256,76.81Z"/></svg>